<svg width="1143" height="262" viewBox="0 0 1143 262" fill="none" xmlns="http://www.w3.org/2000/svg">
<path d="M102.285 12.2303C62.2473 32.896 27.7658 33.4031 13.1218 30.7428C11.8476 30.5113 10.6389 31.4542 10.6342 32.7492C10.5217 63.9288 10.2527 127.135 10.0039 149.776C9.68421 178.866 29.1842 201.563 43.5695 214.67C57.9547 227.776 97.9138 247.916 102.709 249.194C107.504 250.473 148.422 226.178 170.16 206.678C191.897 187.178 193.815 161.604 194.774 158.088C195.528 155.326 195.11 74.2721 194.792 31.8932C194.783 30.6636 193.671 29.7644 192.454 29.9431C152.96 35.7452 118.049 21.0982 104.333 12.3217C103.716 11.9268 102.936 11.8943 102.285 12.2303Z" fill="white" stroke="#C89B3C" stroke-width="4" stroke-linejoin="round"/>
<path d="M102.25 2.23131C58.5568 24.8239 20.948 25.2786 5.16998 22.3426C3.89667 22.1057 2.69377 23.0433 2.6891 24.3385C2.56746 58.1207 2.27484 127.012 2.00421 151.655C1.65726 183.248 22.8211 207.897 38.4338 222.131C54.0464 236.365 97.4149 258.236 102.619 259.625C107.823 261.014 152.233 234.629 175.825 213.451C199.418 192.274 201.499 164.501 202.54 160.682C203.359 157.678 202.903 69.3983 202.558 23.4301C202.549 22.2004 201.436 21.3044 200.219 21.4851C157.191 27.8766 119.143 11.8611 104.295 2.32147C103.678 1.92529 102.901 1.89466 102.25 2.23131Z" stroke="white" stroke-width="4" stroke-linejoin="round"/>
<path d="M106.209 63.0906C106.21 63.0856 106.205 63.0812 106.201 63.0838C106.198 63.085 106.195 63.0845 106.194 63.0828C104.618 61.5531 101.933 65.9199 100.417 68.4316C99.842 69.3825 99.3394 70.4223 98.9156 71.5372C98.8705 71.6546 98.8264 71.7729 98.7831 71.8919C98.7406 72.0097 98.699 72.1284 98.6582 72.2478C98.6414 72.2968 98.6247 72.3458 98.6082 72.3951C98.5132 72.6795 98.4233 72.9681 98.3385 73.2605C97.6792 75.5383 97.334 78.0277 97.3195 80.6067C97.3085 82.5897 97.4932 84.6025 97.8679 86.5862C97.9094 86.8055 97.8729 87.036 97.7688 87.2334C97.4027 87.9277 96.3686 87.9825 95.8931 87.358C94.7735 85.8876 93.3126 84.5301 91.5645 83.3417C89.286 81.7927 86.5747 80.5687 83.6152 79.7517C83.4011 79.6927 83.1642 79.6828 82.9451 79.7193C81.326 79.9894 81.4657 82.1488 83.0181 82.682C83.8215 82.9579 84.6046 83.2656 85.3628 83.6039C87.8443 84.7109 90.0102 86.1228 91.7352 87.7581C93.5497 89.487 94.833 91.4266 95.5026 93.4523C95.9784 94.8898 96.2367 96.396 96.5343 97.8807C96.6584 98.4995 96.7613 99.1315 96.8425 99.7746C97.0029 101.048 97.0777 102.359 97.066 103.691C97.0535 105.173 96.9338 106.673 96.7088 108.167C96.6399 108.625 96.5612 109.082 96.4728 109.537C96.4525 109.643 96.4317 109.749 96.4104 109.854C96.1865 110.945 95.6219 111.924 94.9906 112.842C93.4848 115.03 92.3437 117.86 91.694 121.053C91.6533 121.253 91.6145 121.454 91.5778 121.656C91.5455 121.834 91.2927 121.859 91.2269 121.691C90.6335 120.177 89.9396 118.716 89.1553 117.329C87.4101 114.245 85.2474 111.58 82.8168 109.52C82.1062 108.917 81.3759 108.369 80.6303 107.879C78.0709 106.195 75.371 105.217 72.7184 105.012C71.0904 104.886 69.4995 105.053 67.9882 105.509C67.8455 105.552 67.7036 105.598 67.5624 105.646C67.5383 105.654 67.5141 105.662 67.49 105.671C67.2779 105.745 67.0676 105.824 66.8594 105.909C66.472 106.068 66.0918 106.246 65.7193 106.444C64.8218 106.777 63.967 107.209 63.1719 107.731C62.3442 108.275 61.5871 108.912 60.9167 109.629C59.833 110.555 58.9604 111.717 58.3613 113.033C57.7622 114.348 57.4516 115.785 57.4515 117.239C57.4516 117.608 57.4716 117.976 57.5115 118.343C57.6103 119.251 57.8305 120.141 58.1658 120.986C58.5172 121.872 58.9912 122.701 59.5731 123.445C60.9733 125.236 62.9347 126.463 65.1175 126.914C65.7317 127.041 66.3566 127.105 66.983 127.105C68.9688 127.105 70.905 126.463 72.5211 125.268C72.6212 125.195 72.7198 125.119 72.8171 125.041C73.3639 124.603 73.863 124.104 74.3055 123.554C74.3595 123.487 74.2805 123.396 74.2047 123.436C72.7875 124.188 71.1611 124.588 69.5005 124.588C68.5999 124.588 67.7105 124.47 66.8597 124.243C64.8763 123.715 63.135 122.364 62.2484 120.513C62.1011 120.205 61.9724 119.888 61.8633 119.564C61.576 118.709 61.4298 117.815 61.43 116.915C61.43 115.092 62.0316 113.316 63.1464 111.85C64.2611 110.383 65.83 109.304 67.6224 108.77C68.7794 108.426 69.9789 108.201 71.1779 108.061C71.5638 108.016 71.9522 107.993 72.3413 107.993C74.6051 108 76.8062 108.771 78.6161 110.192C78.6209 110.195 78.627 110.197 78.6331 110.197C78.6391 110.196 78.6451 110.198 78.6499 110.202C79.7489 111.053 80.7959 112.012 81.7817 113.068C82.8455 114.209 83.8345 115.46 84.7387 116.809C85.4573 117.881 86.1197 119.011 86.7222 120.192C88.1183 122.927 88.5659 126.016 89.2531 129.009C89.5984 130.513 90.0572 132.036 90.6239 133.556C91.2599 135.261 92.0259 136.945 92.9066 138.575C93.1839 139.087 93.4721 139.593 93.7707 140.092C94.495 141.304 95.2769 142.467 96.1064 143.569C98.0413 146.14 100.196 148.629 101.185 151.691C101.979 154.151 102.385 156.692 102.384 159.251C102.384 163.352 101.343 167.388 99.3522 171.109C97.6813 174.232 94.627 176.279 91.3307 177.575L84.926 180.091L42.5245 196.756L40.6489 197.493C39.3214 198.015 39.8914 199.753 40.9277 200.733C45.5415 205.097 50.4328 209.362 55.5399 213.472C58.7006 216.015 61.9368 218.494 65.2325 220.895C66.6831 221.952 68.1446 222.994 69.6155 224.02C73.1824 226.505 76.8 228.891 80.4481 231.163C80.6023 231.24 80.7567 231.315 80.9111 231.391C80.9236 231.397 80.9229 231.415 80.9099 231.42C80.8977 231.425 80.8961 231.442 80.9073 231.449C84.8173 233.872 88.753 236.16 92.6893 238.297C93.2904 238.624 93.8913 238.946 94.4919 239.266C99.5913 241.975 105.685 242.009 110.826 239.38C116.467 236.495 122.077 233.346 127.587 229.97C128.941 229.14 130.288 228.297 131.627 227.442C134.115 225.853 136.574 224.222 138.998 222.553C149.607 215.25 159.438 207.292 168.015 199.065C168.148 198.938 168.17 198.734 168.067 198.581C167.979 198.45 167.89 198.319 167.801 198.187C167.743 198.101 167.684 198.015 167.626 197.929C167.293 197.441 166.929 196.945 166.391 196.701L163.985 195.612L118.289 174.942L118.287 174.941C116.935 174.089 115.86 172.993 115.146 171.745C114.974 171.445 114.922 171.093 114.96 170.749C115.175 168.783 115.205 166.777 115.049 164.76C115.048 164.745 115.028 164.74 115.021 164.754C115.013 164.768 114.991 164.763 114.991 164.747C114.99 164.644 114.989 164.541 114.987 164.438C114.984 164.264 114.979 164.089 114.972 163.915C114.804 162.27 114.512 160.627 114.101 159.003C114.026 158.71 113.947 158.417 113.865 158.126C113.469 156.719 112.985 155.331 112.415 153.974C111.575 151.974 110.553 150.048 109.364 148.225C108.768 147.31 108.131 146.424 107.456 145.568C107.44 145.548 107.46 145.518 107.485 145.526C107.514 145.535 107.533 145.497 107.508 145.479C107.408 145.406 107.309 145.331 107.21 145.256C107.204 145.251 107.199 145.246 107.195 145.241C106.672 144.594 106.128 143.967 105.564 143.36C104.473 142.187 103.361 141.004 102.679 139.555C102.016 138.144 101.547 136.624 101.289 135.037C100.897 132.628 101.001 130.124 101.595 127.697C102.225 125.129 103.386 122.715 104.99 120.64C106.593 118.565 108.596 116.885 110.844 115.729C110.976 115.661 111.11 115.595 111.244 115.531C114.389 114.019 117.839 113.593 121.096 114.314C121.876 114.492 122.501 113.517 121.81 113.113C120.954 112.613 120.048 112.201 119.103 111.887C118.66 111.742 118.209 111.618 117.753 111.517C114.958 110.898 112.012 111.122 109.231 112.165C108.627 112.392 108.034 112.656 107.455 112.956C106.915 113.236 106.388 113.547 105.877 113.887C104.016 115.125 102.382 116.737 101.072 118.629C99.7624 120.521 98.8034 122.653 98.2519 124.9C97.9187 126.257 97.7376 127.643 97.7124 129.027C97.597 126.559 97.7876 124.014 98.2756 121.507C98.4542 120.595 98.6715 119.692 98.9262 118.802C99.1135 118.16 99.32 117.526 99.5449 116.903C100.103 115.357 100.735 113.832 101.071 112.224C101.098 112.095 101.125 111.965 101.15 111.836C101.263 111.254 101.36 110.669 101.441 110.082C101.45 110.018 101.459 109.954 101.467 109.89C101.539 109.35 101.597 108.809 101.641 108.268C101.663 107.993 101.682 107.718 101.697 107.444C101.71 107.215 101.72 106.987 101.727 106.76C101.845 103.236 101.361 99.8685 100.327 96.9469C99.948 95.877 99.788 94.7233 100.09 93.6293C100.562 91.916 101.195 90.2204 101.973 88.5832C102.099 88.3192 102.228 88.0569 102.36 87.7965C103.033 86.4772 103.796 85.2104 104.637 84.0166C107.34 80.1812 110.749 77.2421 114.323 75.6639C117.898 74.0858 121.435 73.9588 124.375 75.3031C124.671 75.4382 124.959 75.5877 125.241 75.7514C128.246 77.5022 130.291 80.8114 131.006 85.0793C131.136 85.854 132.228 85.9765 132.315 85.1958C132.453 83.9425 132.451 82.726 132.306 81.5681C131.99 79.0578 131.01 76.8914 129.441 75.2406C129.285 75.0762 129.124 74.9172 128.957 74.7637C127.526 73.4501 125.711 72.5528 123.617 72.1239C122.928 71.9829 122.212 71.8932 121.473 71.8554C118.501 71.7026 115.228 72.3926 111.981 73.8565C108.734 75.3203 105.626 77.5066 102.97 80.1968C102.32 80.8545 101.173 80.4732 101.163 79.5489C101.139 77.3028 101.364 75.1085 101.835 73.0491C101.86 72.9367 101.886 72.8247 101.913 72.7132C101.95 72.5621 101.989 72.4118 102.028 72.2624C102.097 72.0028 102.169 71.7459 102.245 71.492C102.656 70.122 103.179 68.8427 103.803 67.6772C104.186 66.9601 104.608 66.2884 105.063 65.6666C105.093 65.6267 105.119 65.5849 105.142 65.5412C105.551 64.7659 105.907 63.9462 106.209 63.0906Z" fill="#0B2947"/>
<path d="M84.5656 80.3105C84.5656 80.3105 91.5878 75.361 91.2174 70.2011C90.8471 65.0412 87.4197 61.8296 86.1612 61.426C84.9026 61.0224 84.4133 61.0575 84.4133 61.0575L83.6133 67.0422C83.6133 67.0422 76.3574 61.8827 74.8542 61.4966C73.351 61.1106 72.844 60.8999 72.844 60.8999L72.9675 62.6199C72.9675 62.6199 67.9686 61.4969 66.7277 61.339C65.4868 61.1811 67.3603 66.727 68.2001 68.1485C69.0399 69.5701 72.1697 72.0622 72.1697 72.0622C72.1697 72.0622 66.9262 70.9567 65.2136 71.0796C63.501 71.2025 60.8451 71.8872 60.8451 71.8872L61.9119 73.0455C61.9119 73.0455 57.3693 74.8533 55.7273 75.9591C54.0852 77.0648 52.7937 79.6273 52.7937 79.6273C52.7937 79.6273 59.1745 82.8739 60.2061 83.5408C61.2376 84.2077 62.8719 84.7078 62.8719 84.7078L61.8944 86.5068C61.8944 86.5068 64.1933 87.7002 65.3031 87.744C66.4128 87.7878 67.6185 87.4543 68.7106 87.2524C69.8027 87.0505 70.886 86.7258 70.886 86.7258C70.886 86.7258 68.4583 88.8759 67.9348 90.1483C67.4113 91.4208 66.792 93.0705 66.3997 94.457C66.0074 95.8436 65.8344 98.5726 65.8344 98.5726C65.8344 98.5726 66.5331 98.0286 67.3894 97.9672C68.2457 97.9057 73.2611 97.5457 74.2309 97.3526C75.2007 97.1595 77.2362 96.396 78.3283 96.1941C79.4204 95.9923 81.1848 94.8777 81.1848 94.8777L82.0863 97.1593C82.0863 97.1593 84.1658 97.01 85.4056 95.4392C86.6454 93.8683 87.614 91.9465 87.8752 90.4459C88.1364 88.9453 87.3043 85.9179 86.6309 85.1018C85.9576 84.2857 84.4444 82.048 84.4444 82.048C84.4444 82.048 75.5026 91.087 74.6639 91.3941C73.8252 91.7013 78.2962 87.1818 79.1778 85.7602C80.0594 84.3386 81.7532 82.2412 81.7532 82.2412C81.7532 82.2412 77.3825 79.5913 74.7872 79.4071C72.1919 79.2229 67.2018 78.2227 65.6115 78.3368C64.0213 78.4509 63.8901 78.3369 63.8901 78.3369C63.8901 78.3369 68.2586 77.5294 70.3647 77.7487C72.4707 77.968 74.5767 78.1873 76.8226 78.6435C79.0686 79.0997 82.3373 80.1 82.3373 80.1C82.3373 80.1 81.557 76.081 80.5861 74.5453C79.6152 73.0097 75.5574 67.8675 75.5574 67.8675C75.5574 67.8675 80.3568 71.3511 80.9431 72.6673C81.5294 73.9836 83.1649 76.2125 83.4801 77.1778C83.7953 78.143 84.5656 80.3105 84.5656 80.3105Z" fill="#0B2947"/>
<path d="M106.208 63.7722C106.208 63.7722 110.523 71.0938 115.624 71.1338C120.725 71.1738 124.15 68.0428 124.646 66.832C125.141 65.6213 125.145 65.1355 125.145 65.1355L119.325 63.8752C119.325 63.8752 124.965 57.1177 125.462 55.6641C125.959 54.2104 126.206 53.7265 126.206 53.7265L124.506 53.7132C124.506 53.7132 126.001 48.8664 126.254 47.6538C126.506 46.4412 120.908 47.8548 119.445 48.5721C117.982 49.2894 115.287 52.1833 115.287 52.1833C115.287 52.1833 116.784 47.0937 116.797 45.3933C116.811 43.693 116.346 41.0172 116.346 41.0172L115.124 41.9793C115.124 41.9793 113.703 37.3526 112.744 35.6446C111.786 33.9367 109.368 32.4602 109.368 32.4602C109.368 32.4602 105.677 38.5042 104.941 39.4701C104.204 40.4361 103.585 42.0102 103.585 42.0102L101.893 40.9037C101.893 40.9037 100.54 43.0794 100.41 44.1716C100.28 45.2637 100.513 46.4802 100.626 47.5742C100.739 48.6682 100.973 49.7632 100.973 49.7632C100.973 49.7632 99.05 47.1974 97.8403 46.5806C96.6305 45.9638 95.0573 45.2227 93.7251 44.7264C92.393 44.2301 89.7238 43.8448 89.7238 43.8448C89.7238 43.8448 90.2039 44.5773 90.1973 45.4275C90.1906 46.2777 90.1515 51.2572 90.2653 52.2298C90.3792 53.2024 90.9703 55.2719 91.0831 56.3659C91.196 57.46 92.1533 59.2894 92.1533 59.2894L89.84 60C89.84 60 89.8238 62.0647 91.2707 63.4121C92.7177 64.7595 94.5309 65.8669 95.9855 66.2427C97.4401 66.6185 100.481 66.035 101.336 65.4344C102.191 64.8339 104.509 63.516 104.509 63.516C104.509 63.516 96.3247 53.9778 96.0884 53.1257C95.8522 52.2737 99.9444 57.0428 101.273 58.0249C102.601 59.007 104.53 60.844 104.53 60.844C104.53 60.844 107.477 56.7375 107.862 54.1898C108.246 51.6422 109.62 46.7945 109.633 45.2156C109.645 43.6367 109.767 43.5162 109.767 43.5162C109.767 43.5162 110.219 47.8924 109.838 49.9542C109.458 52.016 109.077 54.0779 108.453 56.2593C107.828 58.4407 106.589 61.5889 106.589 61.5889C106.589 61.5889 110.601 61.1346 112.186 60.2968C113.772 59.459 119.145 55.8574 119.145 55.8574C119.145 55.8574 115.344 60.3216 114.004 60.7969C112.665 61.2721 110.346 62.7115 109.372 62.9468C108.399 63.1822 106.208 63.7722 106.208 63.7722Z" fill="#0B2947"/>
<path d="M119.24 82.0098C118.412 82.0097 117.593 82.1727 116.828 82.4894C116.063 82.8061 115.368 83.2703 114.783 83.8556C114.198 84.4408 113.734 85.1355 113.417 85.9002C113.1 86.6648 112.937 87.4843 112.938 88.312C112.938 89.9833 113.602 91.586 114.784 92.7677C115.966 93.9494 117.568 94.6132 119.24 94.6131C119.409 94.6136 119.579 94.6071 119.748 94.5939C120.824 93.4008 122.316 92.6641 123.918 92.5343C124.138 92.2853 124.339 92.0193 124.517 91.7387C124.075 90.8634 123.843 89.8971 123.84 88.9165C123.845 87.7023 124.2 86.5153 124.863 85.4982C124.341 84.4526 123.539 83.5727 122.546 82.9568C121.553 82.3409 120.408 82.0126 119.24 82.0098Z" fill="#C89B3C"/>
<path d="M138.579 91.7346C138.748 91.7214 138.917 91.715 139.086 91.7154C140.135 91.7154 141.167 91.977 142.088 92.4765C143.01 92.9761 143.793 93.6977 144.366 94.5762C145.916 94.4154 147.352 93.6857 148.396 92.528C149.44 91.3704 150.018 89.8669 150.018 88.3081C150.018 86.6368 149.354 85.0339 148.172 83.852C146.991 82.6702 145.388 82.0061 143.717 82.0059C142.642 82.0059 141.586 82.2806 140.647 82.8038C139.709 83.3271 138.92 84.0815 138.355 84.9955C139.068 86.0414 139.449 87.2775 139.449 88.5428C139.448 89.6654 139.148 90.7669 138.579 91.7346Z" fill="#C89B3C"/>
<path d="M131.455 82.4277C130.404 82.4302 129.371 82.6954 128.448 83.199C127.526 83.7027 126.745 84.4289 126.175 85.3116C125.512 86.3288 125.157 87.5158 125.152 88.73C125.155 89.7105 125.387 90.6769 125.829 91.5522C125.966 91.83 126.123 92.0974 126.298 92.3522C127.211 92.4339 128.095 92.7137 128.889 93.1722C129.683 93.6307 130.367 94.2568 130.894 95.0069C131.08 95.0233 131.267 95.0314 131.455 95.0312C131.624 95.0316 131.793 95.0252 131.961 95.012C132.462 94.1604 133.155 93.4383 133.986 92.9041C134.817 92.3698 135.762 92.0383 136.744 91.9364C136.792 91.9315 136.84 91.9273 136.887 91.9236C137.456 90.9559 137.757 89.8537 137.757 88.7311C137.757 87.4658 137.376 86.2297 136.664 85.1838C136.086 84.3349 135.309 83.6402 134.401 83.16C133.493 82.6799 132.482 82.4277 131.455 82.4277Z" fill="#C89B3C"/>
<path d="M125.361 93.4558C125.191 93.4553 125.022 93.4617 124.853 93.475C123.251 93.6047 121.759 94.3415 120.683 95.5346C119.638 96.6923 119.059 98.1965 119.059 99.7563C119.059 100.584 119.222 101.403 119.538 102.168C119.855 102.933 120.319 103.627 120.904 104.213C121.49 104.798 122.184 105.262 122.949 105.579C123.714 105.896 124.533 106.059 125.361 106.058C125.554 106.058 125.746 106.05 125.938 106.032C127.072 105.928 128.156 105.518 129.075 104.847C129.995 104.176 130.715 103.269 131.161 102.221C131.202 102.125 131.24 102.028 131.276 101.929C130.907 101.113 130.716 100.227 130.715 99.3309C130.716 98.5894 130.846 97.8538 131.102 97.1578C130.94 96.799 130.744 96.4562 130.517 96.134C129.99 95.384 129.306 94.7579 128.513 94.2994C127.719 93.8409 126.835 93.5611 125.922 93.4794C125.735 93.463 125.548 93.4555 125.361 93.4558Z" fill="#C89B3C"/>
<path d="M138.335 93.0301C138.166 93.0297 137.997 93.0361 137.829 93.0493C137.781 93.053 137.733 93.0573 137.685 93.0621C136.703 93.1641 135.758 93.4955 134.927 94.0298C134.097 94.5641 133.403 95.2861 132.903 96.1377C132.712 96.4624 132.55 96.8035 132.42 97.157C132.164 97.853 132.033 98.5886 132.033 99.3301C132.033 100.226 132.225 101.112 132.594 101.929C132.636 102.021 132.68 102.113 132.726 102.203C133.255 103.235 134.059 104.102 135.048 104.707C136.038 105.312 137.175 105.632 138.335 105.632C138.445 105.632 138.555 105.63 138.665 105.624C140.277 105.539 141.795 104.84 142.907 103.669C144.018 102.498 144.638 100.945 144.638 99.3304C144.637 98.1087 144.282 96.9134 143.615 95.89C143.042 95.0116 142.26 94.2899 141.338 93.7904C140.416 93.2908 139.384 93.0301 138.335 93.0301Z" fill="#C89B3C"/>
<path d="M138.101 106.751C137.991 106.757 137.881 106.759 137.771 106.759C136.611 106.759 135.474 106.439 134.484 105.834C133.494 105.229 132.691 104.363 132.162 103.33C132.079 103.334 131.997 103.34 131.914 103.347C131.469 104.395 130.748 105.302 129.829 105.973C128.909 106.644 127.825 107.053 126.692 107.158C126.361 107.937 126.19 108.775 126.189 109.622C126.189 110.449 126.352 111.269 126.669 112.034C126.986 112.798 127.45 113.493 128.035 114.078C128.62 114.663 129.315 115.128 130.08 115.444C130.845 115.761 131.664 115.924 132.492 115.924C133.319 115.924 134.139 115.761 134.903 115.444C135.668 115.128 136.363 114.663 136.948 114.078C137.533 113.493 137.998 112.798 138.314 112.034C138.631 111.269 138.794 110.449 138.794 109.622C138.794 108.623 138.556 107.64 138.101 106.751Z" fill="#C89B3C"/>
<path d="M105.549 183.678C104.694 183.665 103.841 184.346 103.841 185.357C103.841 185.91 104.023 186.275 104.486 186.657C104.842 186.951 104.842 186.95 103.976 187.819C102.978 188.821 102.177 189.411 101.034 189.986C100.126 190.442 99.403 190.708 98.4967 190.919C97.6627 191.112 97.6005 191.105 97.6005 190.813C97.6005 189.942 96.4649 189.158 95.5567 189.403C93.6577 189.914 93.9832 192.671 95.9426 192.671C96.38 192.671 96.5767 192.616 96.8986 192.403C97.1215 192.255 97.324 192.135 97.3485 192.135C97.3729 192.135 97.7233 192.573 98.1273 193.109C99.5125 194.948 100.618 197.064 101.357 199.289C101.75 200.473 102.308 202.802 102.22 202.89C102.19 202.909 101.87 202.869 101.501 202.799C98.2491 202.184 95.1177 200.808 92.4445 198.819C91.9011 198.414 91.4571 198.06 91.4571 198.032C91.4571 198.004 91.5773 197.799 91.7248 197.576C92.271 196.751 92.0085 195.644 91.1525 195.163C90.7297 194.925 90.0107 194.898 89.6106 195.105C88.9338 195.455 88.5181 196.352 88.72 197.026C88.9214 197.698 89.5762 198.278 90.1352 198.278C90.4272 198.278 90.4349 198.34 90.2413 199.174C89.7573 201.258 88.7765 203.007 87.1931 204.611C86.2835 205.532 86.2832 205.532 85.9844 205.17C85.5968 204.7 85.2343 204.519 84.6781 204.519C84.1581 204.519 83.9257 204.62 83.4829 205.039C82.4359 206.03 83.2083 207.834 84.6795 207.834C85.2342 207.834 85.5971 207.653 85.9844 207.184C86.2832 206.821 86.2834 206.821 87.191 207.742C88.1742 208.74 88.7825 209.589 89.3892 210.808C89.8139 211.662 90.225 212.887 90.3296 213.612C90.3947 214.064 90.3897 214.076 90.1416 214.076C89.2644 214.076 88.4796 215.207 88.725 216.119C89.2366 218.018 91.9932 217.693 91.9932 215.732C91.9932 215.289 91.9402 215.104 91.7248 214.793C91.5773 214.58 91.4571 214.375 91.4571 214.338C91.4571 214.215 93.4102 212.812 94.3558 212.255C96.579 210.947 99.0276 210.022 101.501 209.554C101.87 209.484 102.188 209.442 102.215 209.459C102.263 209.506 102.034 210.699 101.798 211.623C101.316 213.51 100.368 215.764 99.3431 217.46C98.8561 218.267 97.4446 220.219 97.3485 220.219C97.3241 220.219 97.1214 220.098 96.8986 219.95C96.0732 219.404 94.9665 219.667 94.4854 220.523C94.2478 220.946 94.2209 221.665 94.4277 222.065C94.7777 222.741 95.6752 223.158 96.349 222.956C97.0278 222.752 97.6005 222.099 97.6005 221.528C97.6005 221.28 97.6188 221.27 97.9749 221.326C98.7647 221.453 100.1 221.901 100.938 222.322C102.198 222.953 102.891 223.453 103.934 224.483C104.855 225.392 104.855 225.392 104.493 225.691C104.293 225.855 104.065 226.115 103.986 226.269C103.803 226.622 103.801 227.365 103.98 227.708C104.175 228.082 104.644 228.502 104.975 228.601C106.083 228.933 107.159 228.143 107.159 226.996C107.159 226.442 106.977 226.078 106.509 225.692C106.149 225.395 106.148 225.395 107.019 224.531C108.052 223.506 108.841 222.932 110.047 222.328C110.898 221.902 112.232 221.453 113.025 221.326C113.381 221.27 113.399 221.28 113.399 221.528C113.399 222.413 114.56 223.227 115.443 222.962C116.231 222.726 116.715 222.087 116.715 221.284C116.715 219.896 114.963 219.129 113.946 220.071C113.694 220.305 113.694 220.305 113.058 219.491C111.133 217.026 109.633 213.771 108.98 210.642C108.849 210.015 108.759 209.484 108.78 209.463C108.856 209.411 110.118 209.661 111.157 209.936C113.824 210.642 116.561 211.994 118.749 213.685C119.632 214.367 119.632 214.367 119.397 214.621C118.453 215.639 119.219 217.391 120.608 217.391C122.067 217.391 122.848 215.766 121.918 214.662C121.617 214.304 121.207 214.076 120.865 214.076C120.573 214.076 120.565 214.013 120.759 213.179C121.246 211.078 122.253 209.3 123.858 207.7C124.727 206.834 124.727 206.834 125.02 207.19C125.403 207.654 125.768 207.834 126.322 207.834C126.842 207.834 127.074 207.733 127.517 207.314C127.677 207.162 127.795 206.991 127.874 206.811C127.905 206.671 127.943 206.538 127.986 206.411C128.109 205.499 127.404 204.519 126.32 204.519C125.776 204.519 125.424 204.69 125.021 205.148C124.717 205.495 124.717 205.495 124.026 204.844C122.441 203.349 121.247 201.277 120.759 199.174C120.565 198.34 120.572 198.278 120.865 198.278C121.736 198.278 122.519 197.143 122.275 196.235C122.066 195.459 121.435 194.963 120.658 194.963C119.22 194.963 118.432 196.692 119.397 197.733C119.632 197.986 119.632 197.986 118.749 198.669C116.103 200.713 112.844 202.17 109.511 202.798C108.792 202.933 108.793 202.933 108.856 202.391C109.092 200.387 110.315 197.114 111.662 194.884C112.145 194.084 113.557 192.135 113.652 192.135C113.675 192.135 113.878 192.255 114.101 192.403C114.927 192.949 116.034 192.687 116.515 191.831C116.753 191.408 116.779 190.689 116.572 190.289C116.223 189.613 115.369 189.215 114.672 189.403C113.991 189.586 113.399 190.242 113.399 190.813C113.399 191.105 113.338 191.112 112.504 190.919C110.407 190.432 108.624 189.424 107.033 187.828C106.175 186.968 106.174 186.968 106.525 186.66C106.988 186.254 107.159 185.903 107.159 185.356C107.159 184.836 107.057 184.603 106.638 184.161C106.328 183.833 105.938 183.684 105.549 183.678ZM105.499 189.523C105.648 189.521 105.794 189.656 106.087 189.927C107.195 190.953 108.676 191.874 109.949 192.329C110.547 192.543 110.547 192.542 110.018 193.24C108.592 195.123 107.332 198.591 106.815 202.053C106.671 203.019 106.467 205.129 106.513 205.175C106.556 205.217 108.617 205.008 109.692 204.852C110.996 204.662 113.192 204.134 114.324 203.739C115.606 203.291 117.633 202.265 118.436 201.658C119.134 201.129 119.134 201.129 119.348 201.727C119.801 202.996 120.676 204.404 121.735 205.568C122.291 206.179 122.291 206.179 121.75 206.764C120.724 207.873 119.802 209.353 119.347 210.627C119.133 211.225 119.134 211.224 118.436 210.696C116.553 209.27 113.086 208.01 109.623 207.493C108.658 207.349 106.547 207.144 106.501 207.19C106.458 207.233 106.668 209.296 106.816 210.3C107.327 213.747 108.592 217.229 110.016 219.11C110.543 219.805 110.543 219.805 109.745 220.109C108.458 220.597 106.664 221.774 105.799 222.697C105.669 222.835 105.534 222.949 105.499 222.949C105.464 222.949 105.329 222.835 105.199 222.697C104.334 221.774 102.54 220.597 101.254 220.109C100.456 219.805 100.456 219.805 100.967 219.125C102.811 216.675 104.023 212.759 104.469 207.816C104.528 207.163 104.529 207.163 103.819 207.216C102.614 207.306 100.489 207.62 99.2856 207.887C96.779 208.442 94.0125 209.598 92.5628 210.696C91.8647 211.225 91.8646 211.224 91.6509 210.626C91.196 209.353 90.2753 207.873 89.2491 206.764C88.7076 206.179 88.7079 206.179 89.2634 205.568C90.3226 204.404 91.197 202.996 91.6509 201.726C91.8648 201.127 91.8654 201.128 92.4845 201.596C94.6762 203.255 98.5651 204.583 102.428 204.993C104.752 205.239 104.528 205.282 104.468 204.593C104.038 199.64 102.822 195.692 100.965 193.224C100.452 192.542 100.451 192.543 101.05 192.329C102.319 191.875 103.727 191 104.891 189.941C105.196 189.664 105.349 189.525 105.499 189.523Z" fill="#C89B3C"/>
<path d="M77.5354 143.226C81.4364 140.571 87.6889 140.444 91.5536 140.853C92.3927 140.942 93 141.666 93 142.51C93 143.577 92.0387 144.384 90.979 144.262C82.7754 143.322 78.927 145.657 78 147.048L91.3031 172.229C91.6755 172.934 91.355 173.806 90.6147 174.102C89.98 174.356 89.2559 174.092 88.933 173.49L74.8001 147.108C74.6048 146.744 74.3024 146.446 73.9272 146.272C65.206 142.23 54.0661 144.08 49.5 145.548L62.5883 172.192C63.0868 173.207 64.3288 173.602 65.397 173.232C71.3655 171.16 80.8363 171.706 85.9839 172.4C86.6053 172.484 87.1103 172.934 87.2825 173.537C87.6117 174.689 86.608 175.8 85.4156 175.684C77.9804 174.962 68.4222 176.486 63.0874 177.674C62.1596 177.881 61.2054 177.432 60.7953 176.574L46.0244 145.69C45.4892 144.571 46.0975 143.236 47.3001 142.932C61.6197 139.319 70.4203 141.261 74.3392 143.394C75.3199 143.928 76.6124 143.854 77.5354 143.226Z" fill="#0B2947"/>
<path d="M44.1336 148.462C43.7635 147.714 42.9231 147.324 42.1128 147.524C41.021 147.794 40.4504 148.997 40.932 150.013L57.6283 185.245C57.8449 185.702 58.3686 185.926 58.8483 185.766L76.6185 179.841C77.7823 179.453 77.3563 177.703 76.1438 177.89C72.9653 178.38 69.9968 178.832 68.5 179.046C65.579 179.464 62.7924 180.539 61.4082 181.134C60.9011 181.352 60.3017 181.145 60.0569 180.65L44.1336 148.462Z" fill="#0B2947"/>
<path d="M79.6341 164.872C73.2561 162.567 68.1197 163.009 65.025 164.355C64.2339 164.699 64.2071 165.73 64.8973 166.247C65.2689 166.526 65.7603 166.573 66.1981 166.418C70.1237 165.027 75.718 165.975 78.9143 166.869C79.5051 167.034 80.127 166.691 80.2758 166.096C80.4041 165.583 80.1314 165.052 79.6341 164.872Z" fill="#0B2947"/>
<path d="M76.6341 158.177C70.2561 155.872 65.1197 156.313 62.025 157.66C61.2339 158.004 61.2071 159.034 61.8973 159.552C62.2689 159.831 62.7603 159.878 63.1981 159.723C67.1237 158.332 72.718 159.279 75.9143 160.173C76.5051 160.339 77.127 159.996 77.2758 159.401C77.4041 158.888 77.1314 158.357 76.6341 158.177Z" fill="#0B2947"/>
<path d="M73.6341 151.177C67.2561 148.872 62.1197 149.313 59.025 150.66C58.2339 151.004 58.2071 152.034 58.8973 152.552C59.2689 152.831 59.7603 152.878 60.1981 152.723C64.1237 151.332 69.718 152.279 72.9143 153.173C73.5051 153.339 74.127 152.996 74.2758 152.401C74.4041 151.888 74.1314 151.357 73.6341 151.177Z" fill="#0B2947"/>
<path d="M92.2342 146.798C88.5237 146.092 85.2919 147.006 83.2312 148.028C82.2278 148.526 82.0697 149.933 83.1329 150.286C83.5764 150.433 84.0566 150.432 84.5 150.1C86.2998 148.75 88.9093 148.21 91.5999 148.844C92.1226 148.967 92.6784 148.742 92.9185 148.262C93.2207 147.658 92.8979 146.925 92.2342 146.798Z" fill="#0B2947"/>
<path d="M95.2342 153.798C91.5237 153.092 88.2919 154.006 86.2312 155.028C85.2278 155.526 85.0697 156.933 86.1329 157.286C86.5764 157.433 87.0566 157.432 87.5 157.1C89.2998 155.75 91.9093 155.21 94.5999 155.844C95.1226 155.967 95.6784 155.742 95.9185 155.262C96.2207 154.658 95.8979 153.925 95.2342 153.798Z" fill="#0B2947"/>
<path d="M98.2342 160.798C94.5237 160.092 91.2919 161.006 89.2312 162.028C88.2278 162.526 88.0697 163.933 89.1329 164.286C89.5764 164.433 90.0566 164.432 90.5 164.1C92.2998 162.75 94.9093 162.21 97.5999 162.844C98.1226 162.967 98.6784 162.742 98.9185 162.262C99.2207 161.658 98.8979 160.925 98.2342 160.798Z" fill="#0B2947"/>
<path d="M127.134 148.913C126.533 148.87 126.106 148.308 126.226 147.717L130.875 124.793C130.951 124.417 131.237 124.118 131.609 124.023L158.897 117.09C159.631 116.904 160.297 117.568 160.114 118.302L153.854 143.342C153.703 143.945 153.045 144.266 152.477 144.013L151.841 143.73C151.48 143.57 151.247 143.212 151.247 142.817V142.782C151.247 142.713 151.254 142.643 151.268 142.576L156 120.178L133.989 125.693L129.244 148.679C129.223 148.778 129.17 148.867 129.092 148.931C129.004 149.004 128.891 149.04 128.776 149.032L127.134 148.913Z" fill="#0B2947"/>
<path d="M124.201 151.437C127.073 151.437 129.401 149.859 129.401 147.911C129.401 145.964 127.073 144.385 124.201 144.385C121.328 144.385 119 145.964 119 147.911C119 149.859 121.328 151.437 124.201 151.437Z" fill="#0B2947"/>
<path d="M148.335 147.504C151.208 147.504 153.536 145.925 153.536 143.978C153.536 142.03 151.208 140.451 148.335 140.451C145.463 140.451 143.135 142.03 143.135 143.978C143.135 145.925 145.463 147.504 148.335 147.504Z" fill="#0B2947"/>
<path d="M149.193 127.425L124.776 132.032C124.323 132.118 123.99 132.507 123.977 132.968C123.959 133.591 124.519 134.073 125.133 133.962L149.582 129.532C150.081 129.442 150.448 129.015 150.462 128.509C150.482 127.825 149.865 127.299 149.193 127.425Z" fill="#0B2947"/>
<path d="M151.413 150.579L130.83 154.527C130.378 154.614 130.047 155.003 130.034 155.463C130.016 156.087 130.578 156.569 131.192 156.457L151.807 152.683C152.304 152.592 152.669 152.166 152.684 151.661C152.704 150.977 152.085 150.45 151.413 150.579Z" fill="#0B2947"/>
<path d="M141.248 144.48L132.156 146C131.586 146.095 131.205 146.64 131.313 147.208C131.417 147.759 131.943 148.125 132.495 148.033L141.588 146.513C142.158 146.418 142.538 145.873 142.431 145.305C142.327 144.754 141.801 144.388 141.248 144.48Z" fill="#0B2947"/>
<path d="M149.156 134.91L123.811 139.53C123.341 139.616 123 140.025 123 140.502C123 141.116 123.554 141.581 124.158 141.475L149.536 137.034C150.052 136.944 150.429 136.495 150.429 135.971C150.429 135.298 149.819 134.789 149.156 134.91Z" fill="#0B2947"/>
<path d="M254.073 124.412C252.358 124.412 250.583 124.441 248.75 124.5C246.917 124.5 245.202 124.53 243.605 124.589C242.008 124.589 240.648 124.619 239.524 124.678V121.218L242.54 120.952C244.374 120.715 245.763 120.39 246.71 119.976C247.715 119.562 248.395 118.852 248.75 117.847C249.105 116.842 249.282 115.422 249.282 113.589V72.96C249.282 71.0675 249.105 69.6482 248.75 68.7019C248.395 67.6966 247.715 66.9869 246.71 66.5729C245.763 66.0998 244.374 65.7745 242.54 65.5971L239.524 65.331V61.8713C240.648 61.8713 242.008 61.9009 243.605 61.96C245.202 62.0191 246.917 62.0783 248.75 62.1374C250.583 62.1374 252.358 62.1374 254.073 62.1374H255.315H269.952C274.269 62.1374 277.935 62.1078 280.952 62.0487C284.027 61.9896 286.659 61.9304 288.847 61.8713C288.847 64.7691 288.906 67.6966 289.024 70.6535C289.142 73.5514 289.349 76.538 289.645 79.6132H286.097C284.973 75.9466 283.672 73.1078 282.194 71.0971C280.715 69.0863 278.852 67.667 276.605 66.839C274.358 66.0111 271.46 65.5971 267.911 65.5971H260.992V113.766C260.992 115.718 261.169 117.226 261.524 118.291C261.879 119.355 262.53 120.065 263.476 120.42C264.422 120.775 265.812 120.952 267.645 120.952H271.371C273.914 120.952 276.161 120.627 278.113 119.976C280.065 119.326 281.78 118.261 283.258 116.783C284.737 115.304 286.067 113.352 287.25 110.928C288.433 108.503 289.527 105.546 290.532 102.057H294.081C293.667 105.96 293.341 109.775 293.105 113.5C292.868 117.226 292.75 120.952 292.75 124.678C290.266 124.559 287.28 124.5 283.79 124.5C280.36 124.441 276.161 124.412 271.194 124.412H255.315H254.073ZM257.798 94.7826V91.4116H275.895V94.7826H257.798ZM277.492 106.315C277.196 103.654 276.664 101.495 275.895 99.839C275.126 98.124 274.032 96.8525 272.613 96.0245C271.253 95.1966 269.478 94.7826 267.29 94.7826V91.4116C270.366 91.4116 272.672 90.4654 274.21 88.5729C275.806 86.6213 276.841 83.7234 277.315 79.8793H280.774C280.538 83.2503 280.419 85.882 280.419 87.7745C280.419 89.6078 280.419 91.382 280.419 93.0971C280.419 94.339 280.419 95.581 280.419 96.8229C280.478 98.0057 280.538 99.3659 280.597 100.904C280.715 102.382 280.833 104.186 280.952 106.315H277.492ZM326.458 125.92C322.082 125.92 318.297 124.973 315.103 123.081C311.969 121.129 309.544 118.379 307.829 114.831C306.114 111.223 305.257 106.965 305.257 102.057C305.257 97.0299 306.144 92.6831 307.918 89.0164C309.751 85.3498 312.324 82.5406 315.636 80.589C319.007 78.6374 322.969 77.6616 327.523 77.6616C330.894 77.6616 333.851 78.1643 336.394 79.1697C338.996 80.175 341.036 81.5944 342.515 83.4277C343.993 85.2019 344.732 87.2423 344.732 89.5487C344.732 91.7369 344.082 93.5406 342.781 94.96C341.48 96.3202 339.735 97.0003 337.547 97.0003C335.95 97.0003 334.649 96.5863 333.644 95.7584C332.638 94.8713 332.136 93.7476 332.136 92.3874C332.136 91.1455 332.431 90.081 333.023 89.1939C333.673 88.3068 334.294 87.4788 334.886 86.71C335.536 85.882 335.862 85.0541 335.862 84.2261C335.862 83.339 335.3 82.6293 334.176 82.0971C333.112 81.5648 331.692 81.2987 329.918 81.2987C325.66 81.2987 322.378 83.0138 320.071 86.4439C317.765 89.8148 316.612 94.6052 316.612 100.815C316.612 107.084 317.735 111.874 319.982 115.186C322.289 118.498 325.571 120.154 329.829 120.154C332.609 120.154 335.034 119.414 337.103 117.936C339.232 116.398 341.007 114.151 342.426 111.194L345.531 113.057C343.993 117.197 341.569 120.39 338.257 122.637C334.945 124.826 331.012 125.92 326.458 125.92ZM376.741 125.92C372.483 125.92 368.668 125.062 365.297 123.347C361.985 121.573 359.354 118.912 357.402 115.363C355.51 111.815 354.563 107.291 354.563 101.791C354.563 96.2906 355.51 91.7664 357.402 88.2181C359.354 84.6105 361.985 81.9492 365.297 80.2342C368.668 78.5191 372.512 77.6616 376.829 77.6616C381.147 77.6616 384.961 78.5191 388.273 80.2342C391.585 81.9492 394.187 84.6105 396.079 88.2181C398.031 91.7664 399.007 96.2906 399.007 101.791C399.007 107.291 398.031 111.815 396.079 115.363C394.187 118.912 391.555 121.573 388.184 123.347C384.872 125.062 381.058 125.92 376.741 125.92ZM376.829 122.46C379.964 122.46 382.536 120.834 384.547 117.581C386.558 114.269 387.563 109.006 387.563 101.791C387.563 94.5164 386.528 89.253 384.458 86.0003C382.448 82.6885 379.905 81.0326 376.829 81.0326C373.636 81.0326 371.004 82.6885 368.934 86.0003C366.924 89.253 365.918 94.5164 365.918 101.791C365.918 109.006 366.924 114.269 368.934 117.581C371.004 120.834 373.636 122.46 376.829 122.46ZM420.414 124.412C417.693 124.412 415.209 124.441 412.962 124.5C410.774 124.559 408.467 124.619 406.043 124.678V121.218L408.704 121.041C411.129 120.804 412.785 120.213 413.672 119.266C414.559 118.261 415.002 116.546 415.002 114.121V101.879H425.825V114.121C425.825 116.546 426.268 118.261 427.156 119.266C428.043 120.213 429.699 120.804 432.123 121.041L434.785 121.218V124.678C432.36 124.619 430.024 124.559 427.777 124.5C425.588 124.441 423.134 124.412 420.414 124.412ZM415.002 101.879V66.9277C415.002 64.4439 414.559 62.6992 413.672 61.6939C412.785 60.6885 411.099 60.0675 408.615 59.831L406.043 59.5648V56.1939C407.285 56.253 408.438 56.3121 409.502 56.3713C410.567 56.3713 411.72 56.3713 412.962 56.3713C415.505 56.3713 417.841 56.2826 419.97 56.1052C422.099 55.8686 424.051 55.5433 425.825 55.1293V56.1939V101.879H415.002ZM462.291 125.92C457.914 125.92 454.1 124.973 450.847 123.081C447.654 121.129 445.17 118.35 443.396 114.742C441.681 111.135 440.823 106.847 440.823 101.879C440.823 96.7933 441.71 92.4466 443.484 88.839C445.318 85.2315 447.89 82.4815 451.202 80.589C454.573 78.6374 458.506 77.6616 463.001 77.6616C467.022 77.6616 470.482 78.4304 473.38 79.9681C476.277 81.4466 478.466 83.7826 479.944 86.9761C481.482 90.1697 482.191 94.3095 482.073 99.3955H448.363L448.186 96.0245H471.871C471.931 93.1267 471.635 90.5541 470.984 88.3068C470.393 86.0595 469.417 84.2853 468.057 82.9842C466.697 81.6831 464.952 81.0326 462.823 81.0326C460.103 81.0326 457.737 82.3041 455.726 84.8471C453.716 87.331 452.533 91.2933 452.178 96.7342L452.355 97.0003C452.296 97.5917 452.237 98.2127 452.178 98.8632C452.178 99.5138 452.178 100.253 452.178 101.081C452.178 107.113 453.331 111.815 455.638 115.186C457.944 118.498 461.285 120.154 465.662 120.154C468.619 120.154 471.191 119.444 473.38 118.025C475.627 116.546 477.519 114.269 479.057 111.194L482.162 113.057C480.506 117.137 477.963 120.301 474.533 122.549C471.103 124.796 467.022 125.92 462.291 125.92ZM529.18 124.412C527.465 124.412 525.691 124.441 523.857 124.5C522.024 124.5 520.309 124.53 518.712 124.589C517.115 124.589 515.755 124.619 514.632 124.678V121.218L517.648 120.952C519.481 120.715 520.871 120.39 521.817 119.976C522.822 119.562 523.503 118.852 523.857 117.847C524.212 116.842 524.39 115.422 524.39 113.589V84.0487H536.099V114.299C536.099 116.132 536.247 117.551 536.543 118.557C536.839 119.503 537.46 120.154 538.406 120.508C539.411 120.804 540.919 120.952 542.93 120.952H545.857C548.519 120.952 550.855 120.627 552.865 119.976C554.876 119.326 556.621 118.261 558.099 116.783C559.637 115.304 560.997 113.352 562.18 110.928C563.422 108.503 564.575 105.546 565.64 102.057H569.188C568.774 105.96 568.449 109.775 568.212 113.5C567.976 117.226 567.857 120.952 567.857 124.678C565.314 124.559 562.269 124.5 558.72 124.5C555.172 124.441 550.855 124.412 545.769 124.412H530.245H529.18ZM529.18 62.1374H530.333H531.043C533.054 62.1374 535.064 62.1374 537.075 62.1374C539.145 62.0783 541.097 62.0191 542.93 61.96C544.822 61.9009 546.478 61.8713 547.898 61.8713V65.331L542.841 65.6858C540.062 65.9815 538.228 66.6025 537.341 67.5487C536.513 68.4358 536.099 70.2396 536.099 72.96V84.0487H524.39V72.96C524.39 71.0675 524.212 69.6482 523.857 68.7019C523.562 67.6966 522.911 66.9869 521.906 66.5729C520.9 66.0998 519.481 65.7745 517.648 65.5971L514.632 65.331V61.8713C515.755 61.8713 517.115 61.9009 518.712 61.96C520.309 62.0191 522.024 62.0783 523.857 62.1374C525.691 62.1374 527.465 62.1374 529.18 62.1374ZM599.576 125.92C595.2 125.92 591.385 124.973 588.132 123.081C584.939 121.129 582.455 118.35 580.681 114.742C578.966 111.135 578.108 106.847 578.108 101.879C578.108 96.7933 578.995 92.4466 580.77 88.839C582.603 85.2315 585.175 82.4815 588.487 80.589C591.858 78.6374 595.791 77.6616 600.286 77.6616C604.307 77.6616 607.767 78.4304 610.665 79.9681C613.563 81.4466 615.751 83.7826 617.229 86.9761C618.767 90.1697 619.477 94.3095 619.358 99.3955H585.649L585.471 96.0245H609.157C609.216 93.1267 608.92 90.5541 608.27 88.3068C607.678 86.0595 606.702 84.2853 605.342 82.9842C603.982 81.6831 602.237 81.0326 600.108 81.0326C597.388 81.0326 595.022 82.3041 593.011 84.8471C591.001 87.331 589.818 91.2933 589.463 96.7342L589.64 97.0003C589.581 97.5917 589.522 98.2127 589.463 98.8632C589.463 99.5138 589.463 100.253 589.463 101.081C589.463 107.113 590.616 111.815 592.923 115.186C595.229 118.498 598.571 120.154 602.947 120.154C605.904 120.154 608.477 119.444 610.665 118.025C612.912 116.546 614.804 114.269 616.342 111.194L619.447 113.057C617.791 117.137 615.248 120.301 611.818 122.549C608.388 124.796 604.307 125.92 599.576 125.92ZM650.471 125.92C647.928 125.92 645.799 125.654 644.084 125.121C642.369 124.589 640.95 124.057 639.826 123.525C638.702 122.992 637.697 122.726 636.81 122.726C635.45 122.726 634.444 123.643 633.794 125.476H630.334C630.511 123.938 630.63 122.342 630.689 120.686C630.748 118.971 630.778 117.078 630.778 115.008C630.837 112.879 630.837 110.425 630.778 107.645H634.149C635.095 112.554 636.839 116.25 639.382 118.734C641.925 121.159 645.237 122.371 649.318 122.371C652.216 122.371 654.433 121.75 655.971 120.508C657.568 119.266 658.366 117.551 658.366 115.363C658.366 113.234 657.509 111.49 655.794 110.129C654.138 108.769 651.21 107.498 647.011 106.315C641.63 104.718 637.697 102.678 635.213 100.194C632.729 97.71 631.487 94.6052 631.487 90.8793C631.487 86.8578 632.818 83.6643 635.479 81.2987C638.14 78.874 641.718 77.6616 646.213 77.6616C648.579 77.6616 650.56 77.9277 652.157 78.46C653.812 78.9331 655.202 79.4654 656.326 80.0568C657.45 80.589 658.455 80.8552 659.342 80.8552C659.933 80.8552 660.436 80.6482 660.85 80.2342C661.264 79.7611 661.619 79.0514 661.915 78.1052H665.374C665.256 79.4062 665.167 80.7664 665.108 82.1858C665.049 83.546 664.99 85.1428 664.931 86.9761C664.931 88.7503 664.96 90.9681 665.019 93.6293H661.56C660.791 89.667 659.165 86.5917 656.681 84.4035C654.197 82.2154 651.21 81.1213 647.721 81.1213C645.296 81.1213 643.404 81.6831 642.044 82.8068C640.683 83.9304 640.003 85.5272 640.003 87.5971C640.003 89.7261 640.92 91.5299 642.753 93.0084C644.587 94.4277 647.751 95.788 652.245 97.089C657.39 98.5084 661.116 100.371 663.423 102.678C665.729 104.925 666.882 107.941 666.882 111.726C666.882 116.162 665.404 119.651 662.447 122.194C659.549 124.678 655.557 125.92 650.471 125.92ZM725.427 125.92C721.937 125.92 718.951 125.565 716.467 124.855C714.042 124.145 712.061 123.465 710.523 122.815C708.986 122.105 707.744 121.75 706.798 121.75C706.029 121.75 705.408 122.046 704.935 122.637C704.521 123.229 704.195 124.175 703.959 125.476H700.41C700.529 124.057 700.617 122.371 700.677 120.42C700.736 118.468 700.765 115.984 700.765 112.968C700.824 109.893 700.854 106.049 700.854 101.436H704.402C704.994 107.941 707.005 113.057 710.435 116.783C713.924 120.449 718.448 122.283 724.007 122.283C728.029 122.283 731.193 121.277 733.499 119.266C735.865 117.256 737.048 114.535 737.048 111.105C737.048 108.976 736.515 107.084 735.451 105.428C734.386 103.772 732.671 102.323 730.306 101.081C727.999 99.7799 724.953 98.5675 721.169 97.4439C716.615 96.1428 712.889 94.6052 709.991 92.831C707.093 90.9976 704.964 88.8686 703.604 86.4439C702.244 83.96 701.564 81.1509 701.564 78.0164C701.564 72.6939 703.338 68.4654 706.886 65.331C710.435 62.1966 715.255 60.6293 721.346 60.6293C724.599 60.6293 727.29 60.9842 729.419 61.6939C731.548 62.3444 733.322 63.0245 734.741 63.7342C736.16 64.4439 737.343 64.7987 738.29 64.7987C739.058 64.7987 739.65 64.503 740.064 63.9116C740.537 63.3202 740.892 62.374 741.128 61.0729H744.677C744.558 62.4331 744.47 63.9412 744.41 65.5971C744.351 67.1939 744.292 69.2638 744.233 71.8068C744.233 74.3498 744.233 77.632 744.233 81.6535H740.685C740.271 78.1052 739.236 75.0299 737.58 72.4277C735.983 69.8256 733.913 67.8148 731.37 66.3955C728.886 64.917 726.048 64.1777 722.854 64.1777C719.246 64.1777 716.437 65.0944 714.427 66.9277C712.416 68.7019 711.41 71.0971 711.41 74.1132C711.41 76.1831 711.943 78.0164 713.007 79.6132C714.072 81.1509 715.816 82.5702 718.241 83.8713C720.666 85.1724 723.889 86.4439 727.91 87.6858C732.464 88.9869 736.19 90.5541 739.088 92.3874C741.986 94.2207 744.115 96.3793 745.475 98.8632C746.894 101.288 747.604 104.127 747.604 107.379C747.604 113.057 745.623 117.581 741.66 120.952C737.698 124.264 732.287 125.92 725.427 125.92ZM785.591 101.879V89.9923C785.591 87.0353 784.822 84.8471 783.285 83.4277C781.747 81.9492 779.441 81.21 776.365 81.21C774.236 81.21 772.462 81.5353 771.043 82.1858C769.683 82.7772 769.002 83.546 769.002 84.4922C769.002 85.0836 769.209 85.7342 769.623 86.4439C770.097 87.0944 770.54 87.8336 770.954 88.6616C771.368 89.4304 771.575 90.2584 771.575 91.1455C771.575 92.3874 771.072 93.3928 770.067 94.1616C769.062 94.9304 767.731 95.3148 766.075 95.3148C764.183 95.3148 762.675 94.7826 761.551 93.7181C760.427 92.5944 759.865 91.0863 759.865 89.1939C759.865 86.8874 760.664 84.8767 762.261 83.1616C763.916 81.4466 766.193 80.1159 769.091 79.1697C772.048 78.1643 775.419 77.6616 779.204 77.6616C785.295 77.6616 789.672 79.0218 792.333 81.7423C795.054 84.4627 796.414 88.8686 796.414 94.96V101.879H785.591ZM771.22 125.92C767.199 125.92 764.005 124.885 761.64 122.815C759.274 120.745 758.091 117.965 758.091 114.476C758.091 111.697 758.742 109.479 760.043 107.823C761.403 106.108 763.118 104.748 765.188 103.742C767.258 102.678 769.476 101.82 771.841 101.17C774.207 100.46 776.424 99.8095 778.494 99.2181C780.623 98.5675 782.338 97.8283 783.64 97.0003C785 96.1132 785.68 94.9304 785.68 93.4519L786.035 97.8874C785.621 98.9519 784.793 99.8686 783.551 100.637C782.309 101.347 780.89 102.027 779.293 102.678C777.755 103.328 776.218 104.068 774.68 104.895C773.201 105.664 771.959 106.699 770.954 108C770.008 109.242 769.535 110.898 769.535 112.968C769.535 115.097 770.126 116.783 771.309 118.025C772.492 119.207 774.148 119.799 776.277 119.799C778.228 119.799 780.062 119.296 781.777 118.291C783.492 117.226 785 115.659 786.301 113.589L786.39 117.315C784.497 120.213 782.279 122.371 779.736 123.791C777.252 125.21 774.414 125.92 771.22 125.92ZM796.414 117.226C796.414 118.645 796.621 119.68 797.035 120.331C797.449 120.922 798.158 121.218 799.164 121.218C800.051 121.218 800.938 121.011 801.825 120.597C802.712 120.183 803.599 119.651 804.486 119L805.994 121.839C804.457 123.14 802.771 124.145 800.938 124.855C799.105 125.565 797.035 125.92 794.728 125.92C791.594 125.92 789.287 125.24 787.809 123.879C786.33 122.519 785.591 120.42 785.591 117.581V101.879H796.414V117.226ZM825.502 124.412C822.781 124.412 820.297 124.441 818.05 124.5C815.862 124.559 813.555 124.619 811.131 124.678V121.218L813.792 121.041C816.217 120.804 817.872 120.213 818.76 119.266C819.647 118.261 820.09 116.546 820.09 114.121V101.879H830.913V114.121C830.913 115.718 831.12 116.99 831.534 117.936C832.007 118.882 832.746 119.592 833.752 120.065C834.757 120.479 836.176 120.775 838.01 120.952L841.381 121.218V124.678C839.606 124.619 837.891 124.589 836.235 124.589C834.579 124.53 832.864 124.5 831.09 124.5C829.375 124.441 827.512 124.412 825.502 124.412ZM820.09 101.879V89.7261C820.09 87.1831 819.647 85.4385 818.76 84.4922C817.872 83.4869 816.187 82.8659 813.703 82.6293L811.131 82.3632V78.9035C812.372 78.9627 813.526 79.0218 814.59 79.081C815.655 79.081 816.808 79.081 818.05 79.081C820.593 79.081 822.929 78.9923 825.058 78.8148C827.187 78.5783 829.139 78.2826 830.913 77.9277V78.9035V101.879H820.09ZM846.526 94.4277C845.165 94.4277 844.042 94.0433 843.155 93.2745C842.327 92.5057 841.913 91.5003 841.913 90.2584C841.913 89.4304 842.061 88.6912 842.356 88.0406C842.652 87.3901 842.948 86.7691 843.243 86.1777C843.539 85.5272 843.687 84.9358 843.687 84.4035C843.687 83.1025 842.829 82.4519 841.114 82.4519C839.813 82.4519 838.453 82.7772 837.034 83.4277C835.674 84.0783 834.402 84.9654 833.219 86.089C832.096 87.2127 831.238 88.4842 830.647 89.9035L830.381 86.1777C831.918 83.4573 833.899 81.3578 836.324 79.8793C838.808 78.3417 841.41 77.5729 844.131 77.5729C846.91 77.5729 849.098 78.3713 850.695 79.9681C852.292 81.5648 853.09 83.753 853.09 86.5326C853.09 88.8982 852.499 90.8202 851.316 92.2987C850.133 93.7181 848.536 94.4277 846.526 94.4277ZM872.875 124.412C870.154 124.412 867.67 124.441 865.423 124.5C863.235 124.559 860.928 124.619 858.504 124.678V121.218L861.165 121.041C863.59 120.804 865.246 120.213 866.133 119.266C867.02 118.261 867.463 116.546 867.463 114.121V101.879H878.286V114.121C878.286 116.546 878.67 118.291 879.439 119.355C880.208 120.361 881.627 120.952 883.697 121.129L884.673 121.218V124.678C882.662 124.619 880.74 124.559 878.907 124.5C877.073 124.441 875.063 124.412 872.875 124.412ZM867.463 101.879V89.7261C867.463 87.1831 867.02 85.4385 866.133 84.4922C865.246 83.4869 863.56 82.8659 861.076 82.6293L858.504 82.3632V78.9035C859.746 78.9627 860.899 79.0218 861.963 79.081C863.028 79.081 864.181 79.081 865.423 79.081C867.966 79.081 870.302 78.9923 872.431 78.8148C874.56 78.5783 876.512 78.2826 878.286 77.9277V78.9035V101.879H867.463ZM896.826 101.879V92.9197C896.826 89.6078 896.146 87.124 894.786 85.4681C893.485 83.8121 891.474 82.9842 888.754 82.9842C885.974 82.9842 883.49 83.9009 881.302 85.7342C879.173 87.5675 877.28 90.4062 875.625 94.2503L875.004 92.4761C876.896 87.3901 879.35 83.6643 882.366 81.2987C885.383 78.874 888.961 77.6616 893.1 77.6616C897.832 77.6616 901.41 79.0514 903.834 81.831C906.318 84.5514 907.56 88.5433 907.56 93.8068V101.879H896.826ZM902.149 124.412C899.961 124.412 897.95 124.441 896.116 124.5C894.342 124.559 892.42 124.619 890.35 124.678V121.218L891.415 121.129C893.426 120.952 894.815 120.361 895.584 119.355C896.412 118.291 896.826 116.546 896.826 114.121V101.879H907.56V114.121C907.56 116.546 907.944 118.291 908.713 119.355C909.541 120.361 910.961 120.952 912.971 121.129L914.036 121.218V124.678C911.966 124.619 910.014 124.559 908.181 124.5C906.407 124.441 904.396 124.412 902.149 124.412ZM926.1 101.879V93.0084C926.1 89.6374 925.42 87.124 924.06 85.4681C922.7 83.8121 920.6 82.9842 917.762 82.9842C915.041 82.9842 912.557 83.8417 910.31 85.5568C908.122 87.2718 906.2 89.9331 904.544 93.5406L903.568 91.4116C905.401 86.7396 907.885 83.2799 911.02 81.0326C914.213 78.7853 917.969 77.6616 922.286 77.6616C927.076 77.6616 930.713 79.0514 933.197 81.831C935.681 84.5514 936.923 88.5433 936.923 93.8068V101.879H926.1ZM931.512 124.412C929.323 124.412 927.313 124.441 925.479 124.5C923.646 124.559 921.724 124.619 919.713 124.678V121.218L920.689 121.129C922.759 120.952 924.178 120.361 924.947 119.355C925.716 118.291 926.1 116.546 926.1 114.121V101.879H936.834V114.121C936.834 116.546 937.278 118.261 938.165 119.266C939.111 120.213 940.767 120.804 943.133 121.041L945.883 121.218V124.678C943.458 124.619 941.122 124.559 938.875 124.5C936.686 124.441 934.232 124.412 931.512 124.412ZM974.156 125.92C969.78 125.92 965.965 124.973 962.713 123.081C959.519 121.129 957.035 118.35 955.261 114.742C953.546 111.135 952.688 106.847 952.688 101.879C952.688 96.7933 953.575 92.4466 955.35 88.839C957.183 85.2315 959.756 82.4815 963.067 80.589C966.438 78.6374 970.371 77.6616 974.866 77.6616C978.887 77.6616 982.347 78.4304 985.245 79.9681C988.143 81.4466 990.331 83.7826 991.809 86.9761C993.347 90.1697 994.057 94.3095 993.938 99.3955H960.229L960.051 96.0245H983.737C983.796 93.1267 983.5 90.5541 982.85 88.3068C982.258 86.0595 981.282 84.2853 979.922 82.9842C978.562 81.6831 976.817 81.0326 974.688 81.0326C971.968 81.0326 969.602 82.3041 967.592 84.8471C965.581 87.331 964.398 91.2933 964.043 96.7342L964.221 97.0003C964.161 97.5917 964.102 98.2127 964.043 98.8632C964.043 99.5138 964.043 100.253 964.043 101.081C964.043 107.113 965.196 111.815 967.503 115.186C969.809 118.498 973.151 120.154 977.527 120.154C980.484 120.154 983.057 119.444 985.245 118.025C987.492 116.546 989.385 114.269 990.922 111.194L994.027 113.057C992.371 117.137 989.828 120.301 986.398 122.549C982.968 124.796 978.887 125.92 974.156 125.92ZM1015.96 124.412C1013.24 124.412 1010.76 124.441 1008.51 124.5C1006.32 124.559 1004.01 124.619 1001.59 124.678V121.218L1004.25 121.041C1006.68 120.804 1008.33 120.213 1009.22 119.266C1010.11 118.261 1010.55 116.546 1010.55 114.121V101.879H1021.37V114.121C1021.37 116.546 1021.76 118.291 1022.53 119.355C1023.35 120.361 1024.8 120.952 1026.87 121.129L1028.03 121.218V124.678C1025.96 124.619 1023.97 124.559 1022.08 124.5C1020.25 124.441 1018.21 124.412 1015.96 124.412ZM1010.55 101.879V89.7261C1010.55 87.1831 1010.11 85.4385 1009.22 84.4922C1008.33 83.4869 1006.65 82.8659 1004.16 82.6293L1001.59 82.3632V78.9035C1002.83 78.9627 1003.98 79.0218 1005.05 79.081C1006.11 79.081 1007.27 79.081 1008.51 79.081C1011.05 79.081 1013.39 78.9923 1015.52 78.8148C1017.65 78.5783 1019.6 78.2826 1021.37 77.9277V78.9035V101.879H1010.55ZM1040.44 101.879V93.2745C1040.44 89.8444 1039.76 87.2718 1038.4 85.5568C1037.04 83.8417 1034.97 82.9842 1032.19 82.9842C1029.36 82.9842 1026.81 83.9009 1024.57 85.7342C1022.38 87.5084 1020.46 90.3175 1018.8 94.1616L1018.09 92.4761C1020.04 87.331 1022.53 83.5756 1025.54 81.21C1028.62 78.8444 1032.25 77.6616 1036.45 77.6616C1041.24 77.6616 1044.91 79.081 1047.45 81.9197C1050 84.6992 1051.27 88.7503 1051.27 94.0729V101.879H1040.44ZM1045.86 124.412C1043.67 124.412 1041.66 124.441 1039.82 124.5C1037.99 124.559 1036.07 124.619 1034.06 124.678V121.218L1035.03 121.129C1037.1 120.952 1038.52 120.361 1039.29 119.355C1040.06 118.291 1040.44 116.546 1040.44 114.121V101.879H1051.27V114.121C1051.27 116.546 1051.71 118.261 1052.6 119.266C1053.54 120.213 1055.2 120.804 1057.57 121.041L1060.23 121.218V124.678C1057.8 124.619 1055.47 124.559 1053.22 124.5C1051.03 124.441 1048.58 124.412 1045.86 124.412ZM1084.77 125.92C1080.21 125.92 1076.78 124.648 1074.48 122.105C1072.23 119.503 1071.11 115.629 1071.11 110.484V101.879H1081.84V113.234C1081.84 115.718 1082.34 117.551 1083.35 118.734C1084.35 119.917 1085.86 120.508 1087.87 120.508C1089.77 120.508 1091.33 119.917 1092.58 118.734C1093.88 117.551 1094.91 115.777 1095.68 113.412L1098.43 114.476C1097.31 118.438 1095.65 121.336 1093.46 123.17C1091.27 125.003 1088.38 125.92 1084.77 125.92ZM1071.11 101.879V65.7745C1073.18 65.7745 1075.1 65.6562 1076.87 65.4197C1078.65 65.124 1080.3 64.7396 1081.84 64.2664V101.879H1071.11ZM1060.99 82.4519V78.9923H1096.03V82.4519H1060.99ZM1126.24 125.92C1123.7 125.92 1121.57 125.654 1119.86 125.121C1118.14 124.589 1116.72 124.057 1115.6 123.525C1114.47 122.992 1113.47 122.726 1112.58 122.726C1111.22 122.726 1110.22 123.643 1109.57 125.476H1106.11C1106.28 123.938 1106.4 122.342 1106.46 120.686C1106.52 118.971 1106.55 117.078 1106.55 115.008C1106.61 112.879 1106.61 110.425 1106.55 107.645H1109.92C1110.87 112.554 1112.61 116.25 1115.15 118.734C1117.7 121.159 1121.01 122.371 1125.09 122.371C1127.99 122.371 1130.2 121.75 1131.74 120.508C1133.34 119.266 1134.14 117.551 1134.14 115.363C1134.14 113.234 1133.28 111.49 1131.57 110.129C1129.91 108.769 1126.98 107.498 1122.78 106.315C1117.4 104.718 1113.47 102.678 1110.98 100.194C1108.5 97.71 1107.26 94.6052 1107.26 90.8793C1107.26 86.8578 1108.59 83.6643 1111.25 81.2987C1113.91 78.874 1117.49 77.6616 1121.98 77.6616C1124.35 77.6616 1126.33 77.9277 1127.93 78.46C1129.58 78.9331 1130.97 79.4654 1132.1 80.0568C1133.22 80.589 1134.23 80.8552 1135.11 80.8552C1135.7 80.8552 1136.21 80.6482 1136.62 80.2342C1137.04 79.7611 1137.39 79.0514 1137.69 78.1052H1141.15C1141.03 79.4062 1140.94 80.7664 1140.88 82.1858C1140.82 83.546 1140.76 85.1428 1140.7 86.9761C1140.7 88.7503 1140.73 90.9681 1140.79 93.6293H1137.33C1136.56 89.667 1134.94 86.5917 1132.45 84.4035C1129.97 82.2154 1126.98 81.1213 1123.49 81.1213C1121.07 81.1213 1119.18 81.6831 1117.82 82.8068C1116.45 83.9304 1115.77 85.5272 1115.77 87.5971C1115.77 89.7261 1116.69 91.5299 1118.52 93.0084C1120.36 94.4277 1123.52 95.788 1128.02 97.089C1133.16 98.5084 1136.89 100.371 1139.19 102.678C1141.5 104.925 1142.65 107.941 1142.65 111.726C1142.65 116.162 1141.18 119.651 1138.22 122.194C1135.32 124.678 1131.33 125.92 1126.24 125.92Z" fill="white"/>
<path d="M253.886 203.678V155.824H260.56V203.678H253.886ZM237.13 160.51V154.404H277.245V160.51H237.13ZM290.108 204.388C286.794 204.388 283.812 203.607 281.162 202.045C278.511 200.483 276.405 198.376 274.843 195.726C273.281 193.028 272.5 190.022 272.5 186.709C272.5 183.443 273.281 180.508 274.843 177.905C276.405 175.254 278.511 173.148 281.162 171.586C283.812 170.024 286.794 169.243 290.108 169.243C293.374 169.243 296.332 170.024 298.983 171.586C301.681 173.1 303.811 175.183 305.373 177.834C306.935 180.484 307.716 183.443 307.716 186.709C307.716 190.022 306.935 193.028 305.373 195.726C303.811 198.376 301.681 200.483 298.983 202.045C296.332 203.607 293.374 204.388 290.108 204.388ZM290.108 198.211C292.238 198.211 294.131 197.714 295.788 196.72C297.444 195.726 298.746 194.377 299.693 192.673C300.639 190.921 301.113 188.933 301.113 186.709C301.113 184.531 300.616 182.591 299.622 180.887C298.675 179.183 297.373 177.857 295.717 176.911C294.107 175.917 292.238 175.42 290.108 175.42C287.978 175.42 286.084 175.917 284.428 176.911C282.771 177.857 281.469 179.183 280.523 180.887C279.576 182.591 279.103 184.531 279.103 186.709C279.103 188.933 279.576 190.921 280.523 192.673C281.469 194.377 282.771 195.726 284.428 196.72C286.084 197.714 287.978 198.211 290.108 198.211ZM328.476 204.388C325.731 204.388 323.246 203.772 321.021 202.542C318.844 201.264 317.14 199.512 315.909 197.288C314.679 195.063 314.063 192.483 314.063 189.549V169.953H320.453V189.265C320.453 191.111 320.761 192.72 321.376 194.093C322.039 195.418 322.986 196.436 324.216 197.146C325.447 197.856 326.891 198.211 328.547 198.211C331.056 198.211 333.02 197.43 334.44 195.868C335.86 194.258 336.57 192.057 336.57 189.265V169.953H342.96V189.549C342.96 192.483 342.345 195.063 341.114 197.288C339.884 199.512 338.18 201.264 336.002 202.542C333.872 203.772 331.364 204.388 328.476 204.388ZM351.525 203.678V152.984H357.915V203.678H351.525ZM382.671 204.388C379.358 204.388 376.376 203.607 373.725 202.045C371.074 200.483 368.968 198.376 367.406 195.726C365.844 193.028 365.063 190.022 365.063 186.709C365.063 183.443 365.844 180.508 367.406 177.905C368.968 175.254 371.074 173.148 373.725 171.586C376.376 170.024 379.358 169.243 382.671 169.243C385.937 169.243 388.895 170.024 391.546 171.586C394.244 173.1 396.374 175.183 397.936 177.834C399.498 180.484 400.279 183.443 400.279 186.709C400.279 190.022 399.498 193.028 397.936 195.726C396.374 198.376 394.244 200.483 391.546 202.045C388.895 203.607 385.937 204.388 382.671 204.388ZM382.671 198.211C384.801 198.211 386.694 197.714 388.351 196.72C390.008 195.726 391.309 194.377 392.256 192.673C393.203 190.921 393.676 188.933 393.676 186.709C393.676 184.531 393.179 182.591 392.185 180.887C391.238 179.183 389.937 177.857 388.28 176.911C386.671 175.917 384.801 175.42 382.671 175.42C380.541 175.42 378.648 175.917 376.991 176.911C375.334 177.857 374.033 179.183 373.086 180.887C372.139 182.591 371.666 184.531 371.666 186.709C371.666 188.933 372.139 190.921 373.086 192.673C374.033 194.377 375.334 195.726 376.991 196.72C378.648 197.714 380.541 198.211 382.671 198.211ZM421.04 204.388C418.295 204.388 415.81 203.772 413.585 202.542C411.408 201.264 409.704 199.512 408.473 197.288C407.242 195.063 406.627 192.483 406.627 189.549V169.953H413.017V189.265C413.017 191.111 413.325 192.72 413.94 194.093C414.603 195.418 415.549 196.436 416.78 197.146C418.011 197.856 419.454 198.211 421.111 198.211C423.62 198.211 425.584 197.43 427.004 195.868C428.424 194.258 429.134 192.057 429.134 189.265V169.953H435.524V189.549C435.524 192.483 434.909 195.063 433.678 197.288C432.447 199.512 430.743 201.264 428.566 202.542C426.436 203.772 423.927 204.388 421.04 204.388ZM454.809 204.388C452.916 204.388 451.117 204.151 449.413 203.678C447.757 203.157 446.218 202.447 444.798 201.548C443.378 200.601 442.148 199.489 441.106 198.211L445.224 194.093C446.455 195.607 447.875 196.743 449.484 197.501C451.094 198.211 452.892 198.566 454.88 198.566C456.868 198.566 458.407 198.234 459.495 197.572C460.584 196.862 461.128 195.891 461.128 194.661C461.128 193.43 460.679 192.483 459.779 191.821C458.927 191.111 457.815 190.543 456.442 190.117C455.07 189.643 453.602 189.194 452.04 188.768C450.526 188.294 449.082 187.703 447.709 186.993C446.337 186.283 445.201 185.312 444.301 184.082C443.449 182.851 443.023 181.218 443.023 179.183C443.023 177.147 443.52 175.396 444.514 173.929C445.508 172.414 446.881 171.254 448.632 170.45C450.431 169.645 452.585 169.243 455.093 169.243C457.744 169.243 460.087 169.716 462.122 170.663C464.205 171.562 465.909 172.935 467.234 174.781L463.116 178.899C462.17 177.668 460.986 176.721 459.566 176.059C458.194 175.396 456.632 175.065 454.88 175.065C453.034 175.065 451.614 175.396 450.62 176.059C449.674 176.674 449.2 177.55 449.2 178.686C449.2 179.822 449.626 180.697 450.478 181.313C451.33 181.928 452.443 182.449 453.815 182.875C455.235 183.301 456.703 183.75 458.217 184.224C459.732 184.65 461.176 185.241 462.548 185.999C463.921 186.756 465.033 187.774 465.885 189.052C466.785 190.33 467.234 192.01 467.234 194.093C467.234 197.264 466.098 199.773 463.826 201.619C461.602 203.465 458.596 204.388 454.809 204.388ZM490.008 204.388C486.647 204.388 483.618 203.63 480.92 202.116C478.222 200.554 476.092 198.447 474.53 195.797C472.968 193.146 472.187 190.14 472.187 186.78C472.187 183.466 472.944 180.484 474.459 177.834C476.021 175.183 478.104 173.1 480.707 171.586C483.358 170.024 486.316 169.243 489.582 169.243C492.706 169.243 495.451 169.953 497.818 171.373C500.232 172.793 502.102 174.757 503.427 177.266C504.8 179.774 505.486 182.614 505.486 185.786C505.486 186.259 505.462 186.78 505.415 187.348C505.368 187.868 505.273 188.484 505.131 189.194H476.66V183.869H501.723L499.38 185.928C499.38 183.656 498.978 181.739 498.173 180.177C497.368 178.567 496.232 177.337 494.765 176.485C493.298 175.585 491.523 175.136 489.44 175.136C487.263 175.136 485.346 175.609 483.689 176.556C482.032 177.502 480.754 178.828 479.855 180.532C478.956 182.236 478.506 184.247 478.506 186.567C478.506 188.933 478.979 191.016 479.926 192.815C480.873 194.566 482.222 195.939 483.973 196.933C485.724 197.879 487.736 198.353 490.008 198.353C491.901 198.353 493.629 198.021 495.191 197.359C496.8 196.696 498.173 195.702 499.309 194.377L503.427 198.566C501.818 200.459 499.83 201.903 497.463 202.897C495.144 203.891 492.659 204.388 490.008 204.388Z" fill="white"/>
</svg>
